<?xml version="1.0" encoding="UTF-8" standalone="no"?>
<!-- Created with Inkscape (https://www.inkscape.org/) -->

<svg
   xmlns:dc="https://purl.org/dc/elements/1.1/"
   xmlns:cc="https://creativecommons.org/ns#"
   xmlns:rdf="https://www.w3.org/1999/02/22-rdf-syntax-ns#"
   xmlns:svg="https://www.w3.org/2000/svg"
   xmlns="https://www.w3.org/2000/svg"
   xmlns:sodipodi="https://sodipodi.sourceforge.net/DTD/sodipodi-0.dtd"
   xmlns:inkscape="https://www.inkscape.org/namespaces/inkscape"
   width="261.37589"
   height="62.57378"
   id="svg5006"
   version="1.1"
   inkscape:version="0.48.4 r9939"
   sodipodi:docname="os-logotype.svg">
  <defs
     id="defs5008">
    <filter
       color-interpolation-filters="sRGB"
       inkscape:collect="always"
       id="filter4965"
       x="-0.20355111"
       width="1.4071022"
       y="-0.20485681"
       height="1.4097136">
      <feGaussianBlur
         inkscape:collect="always"
         stdDeviation="0.99075115"
         id="feGaussianBlur4967" />
    </filter>
    <filter
       color-interpolation-filters="sRGB"
       inkscape:collect="always"
       id="filter4961"
       x="-0.20355111"
       width="1.4071022"
       y="-0.20485681"
       height="1.4097136">
      <feGaussianBlur
         inkscape:collect="always"
         stdDeviation="0.99075115"
         id="feGaussianBlur4963" />
    </filter>
    <filter
       inkscape:collect="always"
       id="filter3978"
       x="-0.0515645"
       width="1.103129"
       y="-0.45750675"
       height="1.9150136"
       color-interpolation-filters="sRGB">
      <feGaussianBlur
         inkscape:collect="always"
         stdDeviation="4.217446"
         id="feGaussianBlur3980" />
    </filter>
  </defs>
  <sodipodi:namedview
     id="base"
     pagecolor="#ffffff"
     bordercolor="#666666"
     borderopacity="1.0"
     inkscape:pageopacity="0.0"
     inkscape:pageshadow="2"
     inkscape:zoom="1.4"
     inkscape:cx="18.680136"
     inkscape:cy="22.847159"
     inkscape:document-units="px"
     inkscape:current-layer="layer1"
     showgrid="false"
     fit-margin-top="0"
     fit-margin-left="0"
     fit-margin-right="0"
     fit-margin-bottom="0"
     inkscape:window-width="1280"
     inkscape:window-height="1000"
     inkscape:window-x="0"
     inkscape:window-y="24"
     inkscape:window-maximized="1" />
  <metadata
     id="metadata5011">
    <rdf:RDF>
      <cc:Work
         rdf:about="">
        <dc:format>image/svg+xml</dc:format>
        <dc:type
           rdf:resource="https://purl.org/dc/dcmitype/StillImage" />
        <dc:title />
      </cc:Work>
    </rdf:RDF>
  </metadata>
  <g
     inkscape:label="Layer 1"
     inkscape:groupmode="layer"
     id="layer1"
     transform="translate(-801.65508,-777.75868)">
    <g
       transform="matrix(1.160558,0,0,1.160558,-791.46115,719.62434)"
       id="g5036"
       inkscape:export-filename="/home/ryan/Pictures/open sprites/os1.png"
       inkscape:export-xdpi="90"
       inkscape:export-ydpi="90">
      <g
         id="g10482">
        <g
           id="g3981"
           transform="matrix(2.7299333,0,0,2.7299333,-1820.3411,-7.0306086)"
           style="fill:#ffffff">
          <g
             transform="matrix(0.62436546,0,0,0.62436546,438.48624,4.5611745)"
             id="g3983"
             style="fill:#ffffff">
            <path
               sodipodi:type="arc"
               style="fill:#ffffff;fill-opacity:1;stroke:none"
               id="path3985"
               sodipodi:cx="1477.2322"
               sodipodi:cy="-10.941391"
               sodipodi:rx="18.660715"
               sodipodi:ry="18.660715"
               d="m 1495.8929,-10.941391 c 0,10.30602838 -8.3547,18.6607151 -18.6607,18.6607151 -10.3061,0 -18.6607,-8.35468672 -18.6607,-18.6607151 0,-10.306028 8.3546,-18.660715 18.6607,-18.660715 10.306,0 18.6607,8.354687 18.6607,18.660715 z"
               transform="matrix(0.31100482,0,0,0.31100482,720.87177,37.79203)" />
            <rect
               style="fill:#ffffff;fill-opacity:1;stroke:none"
               id="rect3987"
               width="5.9977813"
               height="11.581085"
               x="1180.1783"
               y="28.585651" />
          </g>
          <g
             transform="matrix(-0.62436546,0,0,-0.62436546,1911.7385,57.037993)"
             id="g3989"
             style="fill:#ffffff">
            <path
               transform="matrix(0.31100482,0,0,0.31100482,720.87177,37.79203)"
               d="m 1495.8929,-10.941391 c 0,10.30602838 -8.3547,18.6607151 -18.6607,18.6607151 -10.3061,0 -18.6607,-8.35468672 -18.6607,-18.6607151 0,-10.306028 8.3546,-18.660715 18.6607,-18.660715 10.306,0 18.6607,8.354687 18.6607,18.660715 z"
               sodipodi:ry="18.660715"
               sodipodi:rx="18.660715"
               sodipodi:cy="-10.941391"
               sodipodi:cx="1477.2322"
               id="path3991"
               style="fill:#ffffff;fill-opacity:1;stroke:none"
               sodipodi:type="arc" />
            <rect
               y="28.585651"
               x="1180.1783"
               height="11.581085"
               width="5.9977813"
               id="rect3993"
               style="fill:#ffffff;fill-opacity:1;stroke:none" />
          </g>
        </g>
        <g
           style="fill:#ffffff;filter:url(#filter4965)"
           id="g4057"
           transform="matrix(1.7044761,0,0,1.7044761,-623.30291,5.4210936)">
          <path
             transform="matrix(0.31100482,0,0,0.31100482,720.87177,37.79203)"
             d="m 1495.8929,-10.941391 c 0,10.30602838 -8.3547,18.6607151 -18.6607,18.6607151 -10.3061,0 -18.6607,-8.35468672 -18.6607,-18.6607151 0,-10.306028 8.3546,-18.660715 18.6607,-18.660715 10.306,0 18.6607,8.354687 18.6607,18.660715 z"
             sodipodi:ry="18.660715"
             sodipodi:rx="18.660715"
             sodipodi:cy="-10.941391"
             sodipodi:cx="1477.2322"
             id="path4059"
             style="fill:#ffffff;fill-opacity:1;stroke:none"
             sodipodi:type="arc" />
          <rect
             y="28.585651"
             x="1180.1783"
             height="11.581085"
             width="5.9977813"
             id="rect4061"
             style="fill:#ffffff;fill-opacity:1;stroke:none" />
        </g>
        <g
           style="fill:#ffffff;filter:url(#filter4961)"
           id="g4063"
           transform="matrix(-1.7044761,0,0,-1.7044761,3398.5775,148.67931)">
          <path
             sodipodi:type="arc"
             style="fill:#ffffff;fill-opacity:1;stroke:none"
             id="path4065"
             sodipodi:cx="1477.2322"
             sodipodi:cy="-10.941391"
             sodipodi:rx="18.660715"
             sodipodi:ry="18.660715"
             d="m 1495.8929,-10.941391 c 0,10.30602838 -8.3547,18.6607151 -18.6607,18.6607151 -10.3061,0 -18.6607,-8.35468672 -18.6607,-18.6607151 0,-10.306028 8.3546,-18.660715 18.6607,-18.660715 10.306,0 18.6607,8.354687 18.6607,18.660715 z"
             transform="matrix(0.31100482,0,0,0.31100482,720.87177,37.79203)" />
          <rect
             style="fill:#ffffff;fill-opacity:1;stroke:none"
             id="rect4067"
             width="5.9977813"
             height="11.581085"
             x="1180.1783"
             y="28.585651" />
        </g>
      </g>
    </g>
    <g
       id="g3174"
       style="font-size:28.14280319px;font-style:normal;font-variant:normal;font-weight:normal;font-stretch:normal;line-height:125%;letter-spacing:0px;word-spacing:0px;fill:#ffffff;fill-opacity:1;stroke:none;filter:url(#filter3978);font-family:Bowlby One;-inkscape-font-specification:Bowlby One">
      <path
         id="path3176"
         style="font-weight:bold;font-family:Bowlby One;-inkscape-font-specification:Bowlby One Bold"
         d="m 864.51519,808.57347 c -10e-6,0.009 -0.005,0.0321 -0.0137,0.0687 l 0,0.0412 c -0.0367,0.38478 -0.055,0.81535 -0.055,1.29171 -1e-5,0.47639 0.0389,0.98025 0.11681,1.51158 0.0779,0.53135 0.20611,1.06269 0.38476,1.59403 0.17863,0.53134 0.45575,0.96191 0.83137,1.29171 0.40307,0.34812 0.85426,0.52218 1.35355,0.52218 0.49926,0 0.92067,-0.071 1.26422,-0.213 0.34353,-0.14199 0.6321,-0.32292 0.86572,-0.54279 0.2336,-0.21986 0.43743,-0.51759 0.61151,-0.8932 0.43971,-0.99855 0.65958,-2.54677 0.65959,-4.64467 -1e-5,-2.13451 -0.24507,-3.63005 -0.73517,-4.48663 -0.49013,-0.85654 -1.22989,-1.28482 -2.21927,-1.28484 -0.49471,2e-5 -0.92757,0.11911 -1.29858,0.35728 -0.37104,0.23821 -0.65045,0.48556 -0.83824,0.74205 -0.18781,0.25652 -0.38019,0.80161 -0.57715,1.63525 -0.19697,0.83367 -0.29545,1.6032 -0.29544,2.30859 z m -7.90142,0.10993 0.0275,-0.30231 c 0.10993,-1.14512 0.25651,-2.15971 0.43973,-3.04377 0.18322,-0.88402 0.48096,-1.71081 0.89321,-2.48036 0.98023,-1.69478 2.34752,-2.97961 4.10187,-3.85452 1.75433,-0.87486 3.64609,-1.3123 5.67528,-1.31232 2.02916,2e-5 3.87282,0.40769 5.53099,1.223 0.98938,0.48556 1.76349,1.09935 2.32233,1.84138 1.07183,1.33753 1.77723,2.56969 2.11621,3.69649 0.33894,1.12683 0.50842,2.4277 0.50844,3.90262 -2e-5,3.27967 -0.67794,5.78064 -2.03376,7.50291 l -0.63211,0.83824 c -0.852,0.9894 -2.05668,1.75205 -3.61404,2.28798 -1.5574,0.53592 -3.10104,0.81304 -4.63092,0.83136 -2.62008,0 -4.76835,-0.54966 -6.44481,-1.64899 -2.83994,-1.84137 -4.2599,-5.00194 -4.2599,-9.48171 z"
         inkscape:connector-curvature="0" />
      <path
         id="path3178"
         style="font-weight:bold;font-family:Bowlby One;-inkscape-font-specification:Bowlby One Bold"
         d="m 880.33178,809.93389 0.0275,-5.6478 0,-5.73025 c 0.0183,-0.009 0.10535,-0.0137 0.26109,-0.0137 l 0.50844,0 c 0.19238,2e-5 0.33896,-0.009 0.43973,-0.0275 l 1.70396,-0.0687 c 0.43973,-0.0183 0.77868,-0.0275 1.01688,-0.0275 l 2.18491,0 4.04003,-0.0962 c 0.54966,2e-5 1.15429,0.0229 1.8139,0.0687 l 0.0962,0 c 0.31146,-0.0183 0.50842,-0.0275 0.59089,-0.0275 1.83219,2e-5 3.39873,0.58175 4.69962,1.74518 0.6321,0.55885 1.13138,1.27799 1.49784,2.15744 0.36642,0.87947 0.54964,1.78871 0.54966,2.7277 -2e-5,0.93903 -0.0962,1.73833 -0.28857,2.39791 -0.1924,0.65961 -0.43975,1.21844 -0.74205,1.67648 -1.20928,1.85054 -3.54993,2.93155 -7.02196,3.24302 l -2.96818,0.12367 c -0.0916,2.19866 -0.13743,3.9072 -0.13742,5.12562 l 0.0137,0.42599 0,1.11307 c -0.0367,0.12825 -0.10536,0.21528 -0.20612,0.26109 l -7.84646,0.12367 c -0.15574,-0.43973 -0.23361,-1.14513 -0.2336,-2.1162 z m 12.0239,-5.89515 c -0.36646,-0.96189 -1.33753,-1.47491 -2.91322,-1.53906 -0.22904,-0.009 -0.54509,-0.0137 -0.94817,-0.0137 -0.10994,2e-5 -0.17865,1.35127 -0.20613,4.05377 l -0.0275,1.03062 0.0412,0.8245 c 1.1268,-0.0183 2.11848,-0.2565 2.97505,-0.71456 0.85655,-0.45804 1.28483,-1.2917 1.28484,-2.50097 -10e-6,-0.51301 -0.0687,-0.89319 -0.20612,-1.14056 z"
         inkscape:connector-curvature="0" />
      <path
         id="path3180"
         style="font-weight:bold;font-family:Bowlby One;-inkscape-font-specification:Bowlby One Bold"
         d="m 901.28772,802.00499 -0.0687,-3.61405 c 0.009,2e-5 0.0412,0.0138 0.0962,0.0412 6.96241,-0.11907 12.20711,-0.1832 15.73414,-0.19238 0.0366,0.0183 0.0641,0.0458 0.0824,0.0824 l 0,3.87513 c -2e-5,0.37562 -0.009,0.68251 -0.0275,0.92069 -0.0458,0.14659 -0.31607,0.21988 -0.81075,0.21986 l -0.0962,0 c -2.21699,2e-5 -4.52558,-0.0366 -6.92577,-0.10993 -10e-6,0.0825 -0.0115,0.22904 -0.0343,0.43973 -0.0229,0.21072 -0.0389,0.36188 -0.0481,0.45347 l -0.0687,0.52218 c -0.0458,0.34814 -0.0779,0.95277 -0.0962,1.81389 l 4.2599,-0.0962 c 0.73287,-0.0183 1.26421,-0.0275 1.59402,-0.0275 l 0.21987,0 c 0.55881,10e-6 0.92525,0.016 1.09933,0.0481 0.17404,0.0321 0.26107,0.12597 0.26109,0.2817 l -0.0137,0.10993 0,0.3298 0.0687,3.53159 -0.0137,0.0137 0,-0.0137 c -2.78498,0.13743 -5.01111,0.20613 -6.67842,0.20613 l -0.64585,0 0,3.32546 7.46169,-0.2336 c 0.41223,0 0.67332,0.0596 0.78327,0.17864 -0.009,0.23819 -0.0138,0.57715 -0.0137,1.01688 l 0.0962,3.73771 c -2e-5,0.22903 -0.10079,0.36186 -0.30231,0.39851 l -4.56222,-0.0412 c -0.89779,0 -2.6842,0.0321 -5.35922,0.0962 l -2.25363,0.055 c -1.59402,0.055 -2.7758,0.0824 -3.54533,0.0824 l -0.0412,-0.0275 0.0137,0 c -0.0916,-0.0916 -0.17864,-0.17864 -0.26109,-0.26109 l 0,-0.48096 0.0825,-14.68977 z"
         inkscape:connector-curvature="0" />
      <path
         id="path3182"
         style="font-weight:bold;font-family:Bowlby One;-inkscape-font-specification:Bowlby One Bold"
         d="m 940.05278,809.39797 -0.0137,0.92069 0,5.08439 0.0275,2.41852 0,0.68708 0.0138,0.64586 c -0.055,0.0733 -0.27944,0.10993 -0.67334,0.10993 l -0.35728,0 -4.31487,0.055 c -1.83223,-10e-6 -3.19722,-0.005 -4.095,-0.0137 -0.13742,-0.14657 -0.6367,-1.47951 -1.49783,-3.9988 l -2.62465,-6.967 -0.49469,0.0687 -0.0137,1.40165 0,3.72397 0.055,3.72397 0,1.53906 c -10e-6,0.41225 -0.0916,0.62754 -0.27483,0.64586 -0.90695,-0.0275 -1.77267,-0.0412 -2.59716,-0.0412 l -0.42599,0 -2.07499,0.055 -0.27483,0 -0.98939,0.0275 -0.0412,-0.0275 c -0.30232,-0.28399 -0.45347,-0.49012 -0.45347,-0.61837 l 0,-0.24735 0.0137,-0.27483 0.0687,-5.35923 c 0,-5.88139 0.055,-10.32909 0.1649,-13.34309 l 0.0275,-1.14056 c 0,-0.0824 3.15598,-0.15571 9.46797,-0.21986 0.0549,0.0367 0.1374,0.23821 0.24734,0.60463 l 0,-0.0412 0.0824,0.27484 c 0.67791,1.94216 1.50241,4.17059 2.47349,6.68529 0.97106,2.51472 1.46576,3.79956 1.4841,3.85451 l 0.46721,-0.0275 0.055,-11.1994 c -2e-5,-0.0733 0.66874,-0.10992 2.00627,-0.10994 l 3.44914,0.0687 1.01688,0 c 0.0641,3.03233 0.0962,6.7105 0.0962,11.03451 z"
         inkscape:connector-curvature="0" />
      <path
         id="path3184"
         style="fill:#ffffff;font-family:Raleway;-inkscape-font-specification:Raleway"
         d="m 955.6246,803.22885 c -0.22503,-0.2628 -0.5252,-0.51616 -0.9005,-0.76009 -0.37533,-0.24389 -0.79746,-0.46433 -1.26638,-0.66131 -0.46894,-0.19695 -0.98024,-0.35641 -1.53391,-0.47838 -0.55368,-0.12194 -1.13054,-0.18292 -1.73058,-0.18294 -1.55739,2e-5 -2.69722,0.29089 -3.41951,0.8726 -0.7223,0.58174 -1.08344,1.37904 -1.08344,2.39189 0,0.54453 0.1032,0.995 0.30962,1.35141 0.2064,0.35643 0.53004,0.66132 0.97093,0.91467 0.44087,0.25337 0.98967,0.47381 1.64641,0.66132 0.65673,0.18752 1.43542,0.38434 2.33607,0.59045 1.03176,0.22561 1.96504,0.48369 2.79986,0.77426 0.83478,0.29059 1.54777,0.65173 2.13896,1.08344 0.59116,0.43172 1.04149,0.95705 1.35097,1.57599 0.30946,0.61895 0.4642,1.37875 0.46421,2.27939 -10e-6,0.95676 -0.18767,1.78698 -0.56297,2.49066 -0.37534,0.70369 -0.88664,1.28542 -1.53391,1.74519 -0.6473,0.45977 -1.41182,0.79744 -2.29356,1.01301 -0.88176,0.21557 -1.83852,0.32336 -2.87028,0.32336 -1.53849,0 -2.99725,-0.23919 -4.37627,-0.71757 -1.37903,-0.47838 -2.63137,-1.17706 -3.75704,-2.09603 l 1.21012,-2.13939 c 0.30002,0.31892 0.68923,0.63784 1.16761,0.95676 0.47837,0.31892 1.02245,0.60506 1.63224,0.85842 0.60978,0.25336 1.26651,0.45977 1.9702,0.61923 0.70368,0.15946 1.44,0.23919 2.20897,0.23919 1.42625,0 2.53331,-0.25322 3.32117,-0.75965 0.78784,-0.50644 1.18177,-1.26638 1.18178,-2.27982 -10e-6,-0.56283 -0.12669,-1.03649 -0.38004,-1.42097 -0.25338,-0.38447 -0.62383,-0.71742 -1.11135,-0.99884 -0.48756,-0.28141 -1.09262,-0.53005 -1.81518,-0.74591 -0.72259,-0.21585 -1.54337,-0.43629 -2.46233,-0.66132 -1.01345,-0.2439 -1.90479,-0.50657 -2.67403,-0.78799 -0.76925,-0.28141 -1.41181,-0.61922 -1.92769,-1.01345 -0.51588,-0.3942 -0.90508,-0.87272 -1.1676,-1.43557 -0.26253,-0.56282 -0.39379,-1.23816 -0.39379,-2.02602 0,-0.95675 0.17821,-1.801 0.53464,-2.53275 0.35642,-0.73173 0.85355,-1.35081 1.49139,-1.85727 0.63784,-0.50641 1.39763,-0.88631 2.27939,-1.13969 0.88175,-0.25334 1.8385,-0.38002 2.87028,-0.38004 1.35124,2e-5 2.57095,0.20643 3.65913,0.61923 1.08815,0.41284 2.05421,0.96622 2.89819,1.66016 z"
         inkscape:connector-curvature="0" />
      <path
         id="path3186"
         style="fill:#ffffff;font-family:Raleway;-inkscape-font-specification:Raleway"
         d="m 961.09203,819.01709 0,-19.98115 8.33085,0 c 0.88174,2e-5 1.69307,0.18295 2.43398,0.54881 0.74089,0.36588 1.37873,0.85371 1.91352,1.46348 0.53476,0.6098 0.9523,1.29459 1.25263,2.05437 0.3003,0.75981 0.45045,1.53363 0.45047,2.32147 -2e-5,0.82565 -0.14073,1.62309 -0.42213,2.39233 -0.28143,0.76925 -0.68022,1.45404 -1.19637,2.05436 -0.51619,0.60035 -1.13542,1.07873 -1.8577,1.43514 -0.7223,0.35643 -1.52433,0.53464 -2.40607,0.53464 l -5.96643,0 0,7.17655 z m 2.53275,-9.4276 5.82558,0 c 0.52561,1e-5 0.99941,-0.10792 1.4214,-0.32379 0.42197,-0.21584 0.78311,-0.51601 1.08344,-0.9005 0.3003,-0.38447 0.53491,-0.83007 0.70383,-1.3368 0.16889,-0.50671 0.25334,-1.04149 0.25336,-1.60433 -2e-5,-0.58172 -0.0985,-1.1258 -0.29545,-1.63225 -0.19697,-0.50642 -0.45964,-0.94729 -0.78799,-1.32263 -0.32838,-0.3753 -0.713,-0.66616 -1.15387,-0.87259 -0.44089,-0.20639 -0.90524,-0.3096 -1.39305,-0.30961 l -5.65725,0 z"
         inkscape:connector-curvature="0" />
      <path
         id="path3188"
         style="fill:#ffffff;font-family:Raleway;-inkscape-font-specification:Raleway"
         d="m 978.57136,819.01709 0,-19.98115 8.55586,0 c 0.88174,2e-5 1.69321,0.18295 2.43441,0.54881 0.74118,0.36588 1.37902,0.85371 1.91352,1.46348 0.53448,0.6098 0.95188,1.29459 1.2522,2.05437 0.3003,0.75981 0.45045,1.53363 0.45047,2.32147 -2e-5,0.69396 -0.0985,1.36458 -0.29544,2.01185 -0.19698,0.6473 -0.4784,1.23361 -0.84425,1.75893 -0.36589,0.52534 -0.80676,0.97566 -1.32263,1.35097 -0.5159,0.37533 -1.09305,0.64744 -1.73144,0.81634 l 4.84133,7.65493 -2.87113,0 -4.55878,-7.17655 -5.29137,0 0,7.17655 z m 2.53275,-9.4276 6.05145,0 c 0.52504,1e-5 0.99869,-0.11264 1.42097,-0.33796 0.42226,-0.22529 0.7834,-0.53018 1.08344,-0.91467 0.30001,-0.38447 0.53448,-0.83007 0.7034,-1.3368 0.16889,-0.50671 0.25335,-1.03204 0.25336,-1.57599 -10e-6,-0.56282 -0.0985,-1.09287 -0.29544,-1.59016 -0.19698,-0.49726 -0.45965,-0.93814 -0.788,-1.32263 -0.32838,-0.38446 -0.713,-0.68463 -1.15386,-0.90051 -0.44089,-0.21584 -0.90524,-0.32377 -1.39306,-0.32378 l -5.88226,0 z"
         inkscape:connector-curvature="0" />
      <path
         id="path3190"
         style="fill:#ffffff;font-family:Raleway;-inkscape-font-specification:Raleway"
         d="m 997.25994,819.01709 0,-19.95367 2.53275,0 0,19.95367 z"
         inkscape:connector-curvature="0" />
      <path
         id="path3192"
         style="fill:#ffffff;font-family:Raleway;-inkscape-font-specification:Raleway"
         d="m 1019.0077,801.28699 -6.8948,0 0,17.7301 -2.5328,0 0,-17.7301 -6.8948,0 0,-2.25105 16.3224,0 z"
         inkscape:connector-curvature="0" />
      <path
         id="path3194"
         style="fill:#ffffff;font-family:Raleway;-inkscape-font-specification:Raleway"
         d="m 1035.4496,816.76604 0,2.25105 -13.5647,0 0,-19.98115 13.3122,0 0,2.25105 -10.7795,0 0,6.47315 9.3718,0 0,2.1102 -9.3718,0 0,6.8957 z"
         inkscape:connector-curvature="0" />
      <path
         id="path3196"
         style="fill:#ffffff;font-family:Raleway;-inkscape-font-specification:Raleway"
         d="m 1050.8264,803.22885 c -0.225,-0.2628 -0.5252,-0.51616 -0.9005,-0.76009 -0.3753,-0.24389 -0.7974,-0.46433 -1.2664,-0.66131 -0.4689,-0.19695 -0.9802,-0.35641 -1.5339,-0.47838 -0.5536,-0.12194 -1.1305,-0.18292 -1.7305,-0.18294 -1.5574,2e-5 -2.6973,0.29089 -3.4196,0.8726 -0.7223,0.58174 -1.0834,1.37904 -1.0834,2.39189 0,0.54453 0.1032,0.995 0.3096,1.35141 0.2064,0.35643 0.5301,0.66132 0.971,0.91467 0.4408,0.25337 0.9896,0.47381 1.6464,0.66132 0.6567,0.18752 1.4354,0.38434 2.336,0.59045 1.0318,0.22561 1.9651,0.48369 2.7999,0.77426 0.8348,0.29059 1.5478,0.65173 2.139,1.08344 0.5911,0.43172 1.0414,0.95705 1.3509,1.57599 0.3095,0.61895 0.4642,1.37875 0.4642,2.27939 0,0.95676 -0.1876,1.78698 -0.5629,2.49066 -0.3754,0.70369 -0.8867,1.28542 -1.5339,1.74519 -0.6473,0.45977 -1.4119,0.79744 -2.2936,1.01301 -0.8818,0.21557 -1.8385,0.32336 -2.8703,0.32336 -1.5385,0 -2.9972,-0.23919 -4.3763,-0.71757 -1.379,-0.47838 -2.6313,-1.17706 -3.757,-2.09603 l 1.2101,-2.13939 c 0.3001,0.31892 0.6893,0.63784 1.1676,0.95676 0.4784,0.31892 1.0225,0.60506 1.6323,0.85842 0.6098,0.25336 1.2665,0.45977 1.9702,0.61923 0.7037,0.15946 1.44,0.23919 2.2089,0.23919 1.4263,0 2.5334,-0.25322 3.3212,-0.75965 0.7879,-0.50644 1.1818,-1.26638 1.1818,-2.27982 0,-0.56283 -0.1267,-1.03649 -0.38,-1.42097 -0.2534,-0.38447 -0.6239,-0.71742 -1.1114,-0.99884 -0.4875,-0.28141 -1.0926,-0.53005 -1.8152,-0.74591 -0.7226,-0.21585 -1.5433,-0.43629 -2.4623,-0.66132 -1.0134,-0.2439 -1.9048,-0.50657 -2.674,-0.78799 -0.7693,-0.28141 -1.4118,-0.61922 -1.9277,-1.01345 -0.5159,-0.3942 -0.9051,-0.87272 -1.1676,-1.43557 -0.2625,-0.56282 -0.3938,-1.23816 -0.3938,-2.02602 0,-0.95675 0.1782,-1.801 0.5346,-2.53275 0.3564,-0.73173 0.8536,-1.35081 1.4914,-1.85727 0.6379,-0.50641 1.3976,-0.88631 2.2794,-1.13969 0.8818,-0.25334 1.8385,-0.38002 2.8703,-0.38004 1.3512,2e-5 2.5709,0.20643 3.6591,0.61923 1.0882,0.41284 2.0542,0.96622 2.8982,1.66016 z"
         inkscape:connector-curvature="0" />
    </g>
    <g
       style="font-size:28.14280319px;font-style:normal;font-variant:normal;font-weight:normal;font-stretch:normal;line-height:125%;letter-spacing:0px;word-spacing:0px;fill:#ffffff;fill-opacity:1;stroke:none;font-family:Bowlby One;-inkscape-font-specification:Bowlby One"
       id="text3995">
      <path
         d="m 864.51519,808.57347 c -10e-6,0.009 -0.005,0.0321 -0.0137,0.0687 l 0,0.0412 c -0.0367,0.38478 -0.055,0.81535 -0.055,1.29171 -1e-5,0.47639 0.0389,0.98025 0.11681,1.51158 0.0779,0.53135 0.20611,1.06269 0.38476,1.59403 0.17863,0.53134 0.45575,0.96191 0.83137,1.29171 0.40307,0.34812 0.85426,0.52218 1.35355,0.52218 0.49926,0 0.92067,-0.071 1.26422,-0.213 0.34353,-0.14199 0.6321,-0.32292 0.86572,-0.54279 0.2336,-0.21986 0.43743,-0.51759 0.61151,-0.8932 0.43971,-0.99855 0.65958,-2.54677 0.65959,-4.64467 -1e-5,-2.13451 -0.24507,-3.63005 -0.73517,-4.48663 -0.49013,-0.85654 -1.22989,-1.28482 -2.21927,-1.28484 -0.49471,2e-5 -0.92757,0.11911 -1.29858,0.35728 -0.37104,0.23821 -0.65045,0.48556 -0.83824,0.74205 -0.18781,0.25652 -0.38019,0.80161 -0.57715,1.63525 -0.19697,0.83367 -0.29545,1.6032 -0.29544,2.30859 z m -7.90142,0.10993 0.0275,-0.30231 c 0.10993,-1.14512 0.25651,-2.15971 0.43973,-3.04377 0.18322,-0.88402 0.48096,-1.71081 0.89321,-2.48036 0.98023,-1.69478 2.34752,-2.97961 4.10187,-3.85452 1.75433,-0.87486 3.64609,-1.3123 5.67528,-1.31232 2.02916,2e-5 3.87282,0.40769 5.53099,1.223 0.98938,0.48556 1.76349,1.09935 2.32233,1.84138 1.07183,1.33753 1.77723,2.56969 2.11621,3.69649 0.33894,1.12683 0.50842,2.4277 0.50844,3.90262 -2e-5,3.27967 -0.67794,5.78064 -2.03376,7.50291 l -0.63211,0.83824 c -0.852,0.9894 -2.05668,1.75205 -3.61404,2.28798 -1.5574,0.53592 -3.10104,0.81304 -4.63092,0.83136 -2.62008,0 -4.76835,-0.54966 -6.44481,-1.64899 -2.83994,-1.84137 -4.2599,-5.00194 -4.2599,-9.48171 z"
         style="font-weight:bold;font-family:Bowlby One;-inkscape-font-specification:Bowlby One Bold"
         id="path3152"
         inkscape:connector-curvature="0" />
      <path
         d="m 880.33178,809.93389 0.0275,-5.6478 0,-5.73025 c 0.0183,-0.009 0.10535,-0.0137 0.26109,-0.0137 l 0.50844,0 c 0.19238,2e-5 0.33896,-0.009 0.43973,-0.0275 l 1.70396,-0.0687 c 0.43973,-0.0183 0.77868,-0.0275 1.01688,-0.0275 l 2.18491,0 4.04003,-0.0962 c 0.54966,2e-5 1.15429,0.0229 1.8139,0.0687 l 0.0962,0 c 0.31146,-0.0183 0.50842,-0.0275 0.59089,-0.0275 1.83219,2e-5 3.39873,0.58175 4.69962,1.74518 0.6321,0.55885 1.13138,1.27799 1.49784,2.15744 0.36642,0.87947 0.54964,1.78871 0.54966,2.7277 -2e-5,0.93903 -0.0962,1.73833 -0.28857,2.39791 -0.1924,0.65961 -0.43975,1.21844 -0.74205,1.67648 -1.20928,1.85054 -3.54993,2.93155 -7.02196,3.24302 l -2.96818,0.12367 c -0.0916,2.19866 -0.13743,3.9072 -0.13742,5.12562 l 0.0137,0.42599 0,1.11307 c -0.0367,0.12825 -0.10536,0.21528 -0.20612,0.26109 l -7.84646,0.12367 c -0.15574,-0.43973 -0.23361,-1.14513 -0.2336,-2.1162 z m 12.0239,-5.89515 c -0.36646,-0.96189 -1.33753,-1.47491 -2.91322,-1.53906 -0.22904,-0.009 -0.54509,-0.0137 -0.94817,-0.0137 -0.10994,2e-5 -0.17865,1.35127 -0.20613,4.05377 l -0.0275,1.03062 0.0412,0.8245 c 1.1268,-0.0183 2.11848,-0.2565 2.97505,-0.71456 0.85655,-0.45804 1.28483,-1.2917 1.28484,-2.50097 -10e-6,-0.51301 -0.0687,-0.89319 -0.20612,-1.14056 z"
         style="font-weight:bold;font-family:Bowlby One;-inkscape-font-specification:Bowlby One Bold"
         id="path3154"
         inkscape:connector-curvature="0" />
      <path
         d="m 901.28772,802.00499 -0.0687,-3.61405 c 0.009,2e-5 0.0412,0.0138 0.0962,0.0412 6.96241,-0.11907 12.20711,-0.1832 15.73414,-0.19238 0.0366,0.0183 0.0641,0.0458 0.0824,0.0824 l 0,3.87513 c -2e-5,0.37562 -0.009,0.68251 -0.0275,0.92069 -0.0458,0.14659 -0.31607,0.21988 -0.81075,0.21986 l -0.0962,0 c -2.21699,2e-5 -4.52558,-0.0366 -6.92577,-0.10993 -10e-6,0.0825 -0.0115,0.22904 -0.0343,0.43973 -0.0229,0.21072 -0.0389,0.36188 -0.0481,0.45347 l -0.0687,0.52218 c -0.0458,0.34814 -0.0779,0.95277 -0.0962,1.81389 l 4.2599,-0.0962 c 0.73287,-0.0183 1.26421,-0.0275 1.59402,-0.0275 l 0.21987,0 c 0.55881,10e-6 0.92525,0.016 1.09933,0.0481 0.17404,0.0321 0.26107,0.12597 0.26109,0.2817 l -0.0137,0.10993 0,0.3298 0.0687,3.53159 -0.0137,0.0137 0,-0.0137 c -2.78498,0.13743 -5.01111,0.20613 -6.67842,0.20613 l -0.64585,0 0,3.32546 7.46169,-0.2336 c 0.41223,0 0.67332,0.0596 0.78327,0.17864 -0.009,0.23819 -0.0138,0.57715 -0.0137,1.01688 l 0.0962,3.73771 c -2e-5,0.22903 -0.10079,0.36186 -0.30231,0.39851 l -4.56222,-0.0412 c -0.89779,0 -2.6842,0.0321 -5.35922,0.0962 l -2.25363,0.055 c -1.59402,0.055 -2.7758,0.0824 -3.54533,0.0824 l -0.0412,-0.0275 0.0137,0 c -0.0916,-0.0916 -0.17864,-0.17864 -0.26109,-0.26109 l 0,-0.48096 0.0825,-14.68977 z"
         style="font-weight:bold;font-family:Bowlby One;-inkscape-font-specification:Bowlby One Bold"
         id="path3156"
         inkscape:connector-curvature="0" />
      <path
         d="m 940.05278,809.39797 -0.0137,0.92069 0,5.08439 0.0275,2.41852 0,0.68708 0.0138,0.64586 c -0.055,0.0733 -0.27944,0.10993 -0.67334,0.10993 l -0.35728,0 -4.31487,0.055 c -1.83223,-10e-6 -3.19722,-0.005 -4.095,-0.0137 -0.13742,-0.14657 -0.6367,-1.47951 -1.49783,-3.9988 l -2.62465,-6.967 -0.49469,0.0687 -0.0137,1.40165 0,3.72397 0.055,3.72397 0,1.53906 c -10e-6,0.41225 -0.0916,0.62754 -0.27483,0.64586 -0.90695,-0.0275 -1.77267,-0.0412 -2.59716,-0.0412 l -0.42599,0 -2.07499,0.055 -0.27483,0 -0.98939,0.0275 -0.0412,-0.0275 c -0.30232,-0.28399 -0.45347,-0.49012 -0.45347,-0.61837 l 0,-0.24735 0.0137,-0.27483 0.0687,-5.35923 c 0,-5.88139 0.055,-10.32909 0.1649,-13.34309 l 0.0275,-1.14056 c 0,-0.0824 3.15598,-0.15571 9.46797,-0.21986 0.0549,0.0367 0.1374,0.23821 0.24734,0.60463 l 0,-0.0412 0.0824,0.27484 c 0.67791,1.94216 1.50241,4.17059 2.47349,6.68529 0.97106,2.51472 1.46576,3.79956 1.4841,3.85451 l 0.46721,-0.0275 0.055,-11.1994 c -2e-5,-0.0733 0.66874,-0.10992 2.00627,-0.10994 l 3.44914,0.0687 1.01688,0 c 0.0641,3.03233 0.0962,6.7105 0.0962,11.03451 z"
         style="font-weight:bold;font-family:Bowlby One;-inkscape-font-specification:Bowlby One Bold"
         id="path3158"
         inkscape:connector-curvature="0" />
      <path
         d="m 955.6246,803.22885 c -0.22503,-0.2628 -0.5252,-0.51616 -0.9005,-0.76009 -0.37533,-0.24389 -0.79746,-0.46433 -1.26638,-0.66131 -0.46894,-0.19695 -0.98024,-0.35641 -1.53391,-0.47838 -0.55368,-0.12194 -1.13054,-0.18292 -1.73058,-0.18294 -1.55739,2e-5 -2.69722,0.29089 -3.41951,0.8726 -0.7223,0.58174 -1.08344,1.37904 -1.08344,2.39189 0,0.54453 0.1032,0.995 0.30962,1.35141 0.2064,0.35643 0.53004,0.66132 0.97093,0.91467 0.44087,0.25337 0.98967,0.47381 1.64641,0.66132 0.65673,0.18752 1.43542,0.38434 2.33607,0.59045 1.03176,0.22561 1.96504,0.48369 2.79986,0.77426 0.83478,0.29059 1.54777,0.65173 2.13896,1.08344 0.59116,0.43172 1.04149,0.95705 1.35097,1.57599 0.30946,0.61895 0.4642,1.37875 0.46421,2.27939 -10e-6,0.95676 -0.18767,1.78698 -0.56297,2.49066 -0.37534,0.70369 -0.88664,1.28542 -1.53391,1.74519 -0.6473,0.45977 -1.41182,0.79744 -2.29356,1.01301 -0.88176,0.21557 -1.83852,0.32336 -2.87028,0.32336 -1.53849,0 -2.99725,-0.23919 -4.37627,-0.71757 -1.37903,-0.47838 -2.63137,-1.17706 -3.75704,-2.09603 l 1.21012,-2.13939 c 0.30002,0.31892 0.68923,0.63784 1.16761,0.95676 0.47837,0.31892 1.02245,0.60506 1.63224,0.85842 0.60978,0.25336 1.26651,0.45977 1.9702,0.61923 0.70368,0.15946 1.44,0.23919 2.20897,0.23919 1.42625,0 2.53331,-0.25322 3.32117,-0.75965 0.78784,-0.50644 1.18177,-1.26638 1.18178,-2.27982 -10e-6,-0.56283 -0.12669,-1.03649 -0.38004,-1.42097 -0.25338,-0.38447 -0.62383,-0.71742 -1.11135,-0.99884 -0.48756,-0.28141 -1.09262,-0.53005 -1.81518,-0.74591 -0.72259,-0.21585 -1.54337,-0.43629 -2.46233,-0.66132 -1.01345,-0.2439 -1.90479,-0.50657 -2.67403,-0.78799 -0.76925,-0.28141 -1.41181,-0.61922 -1.92769,-1.01345 -0.51588,-0.3942 -0.90508,-0.87272 -1.1676,-1.43557 -0.26253,-0.56282 -0.39379,-1.23816 -0.39379,-2.02602 0,-0.95675 0.17821,-1.801 0.53464,-2.53275 0.35642,-0.73173 0.85355,-1.35081 1.49139,-1.85727 0.63784,-0.50641 1.39763,-0.88631 2.27939,-1.13969 0.88175,-0.25334 1.8385,-0.38002 2.87028,-0.38004 1.35124,2e-5 2.57095,0.20643 3.65913,0.61923 1.08815,0.41284 2.05421,0.96622 2.89819,1.66016 z"
         style="fill:#ffffff;font-family:Raleway;-inkscape-font-specification:Raleway"
         id="path3160"
         inkscape:connector-curvature="0" />
      <path
         d="m 961.09203,819.01709 0,-19.98115 8.33085,0 c 0.88174,2e-5 1.69307,0.18295 2.43398,0.54881 0.74089,0.36588 1.37873,0.85371 1.91352,1.46348 0.53476,0.6098 0.9523,1.29459 1.25263,2.05437 0.3003,0.75981 0.45045,1.53363 0.45047,2.32147 -2e-5,0.82565 -0.14073,1.62309 -0.42213,2.39233 -0.28143,0.76925 -0.68022,1.45404 -1.19637,2.05436 -0.51619,0.60035 -1.13542,1.07873 -1.8577,1.43514 -0.7223,0.35643 -1.52433,0.53464 -2.40607,0.53464 l -5.96643,0 0,7.17655 z m 2.53275,-9.4276 5.82558,0 c 0.52561,1e-5 0.99941,-0.10792 1.4214,-0.32379 0.42197,-0.21584 0.78311,-0.51601 1.08344,-0.9005 0.3003,-0.38447 0.53491,-0.83007 0.70383,-1.3368 0.16889,-0.50671 0.25334,-1.04149 0.25336,-1.60433 -2e-5,-0.58172 -0.0985,-1.1258 -0.29545,-1.63225 -0.19697,-0.50642 -0.45964,-0.94729 -0.78799,-1.32263 -0.32838,-0.3753 -0.713,-0.66616 -1.15387,-0.87259 -0.44089,-0.20639 -0.90524,-0.3096 -1.39305,-0.30961 l -5.65725,0 z"
         style="fill:#ffffff;font-family:Raleway;-inkscape-font-specification:Raleway"
         id="path3162"
         inkscape:connector-curvature="0" />
      <path
         d="m 978.57136,819.01709 0,-19.98115 8.55586,0 c 0.88174,2e-5 1.69321,0.18295 2.43441,0.54881 0.74118,0.36588 1.37902,0.85371 1.91352,1.46348 0.53448,0.6098 0.95188,1.29459 1.2522,2.05437 0.3003,0.75981 0.45045,1.53363 0.45047,2.32147 -2e-5,0.69396 -0.0985,1.36458 -0.29544,2.01185 -0.19698,0.6473 -0.4784,1.23361 -0.84425,1.75893 -0.36589,0.52534 -0.80676,0.97566 -1.32263,1.35097 -0.5159,0.37533 -1.09305,0.64744 -1.73144,0.81634 l 4.84133,7.65493 -2.87113,0 -4.55878,-7.17655 -5.29137,0 0,7.17655 z m 2.53275,-9.4276 6.05145,0 c 0.52504,1e-5 0.99869,-0.11264 1.42097,-0.33796 0.42226,-0.22529 0.7834,-0.53018 1.08344,-0.91467 0.30001,-0.38447 0.53448,-0.83007 0.7034,-1.3368 0.16889,-0.50671 0.25335,-1.03204 0.25336,-1.57599 -10e-6,-0.56282 -0.0985,-1.09287 -0.29544,-1.59016 -0.19698,-0.49726 -0.45965,-0.93814 -0.788,-1.32263 -0.32838,-0.38446 -0.713,-0.68463 -1.15386,-0.90051 -0.44089,-0.21584 -0.90524,-0.32377 -1.39306,-0.32378 l -5.88226,0 z"
         style="fill:#ffffff;font-family:Raleway;-inkscape-font-specification:Raleway"
         id="path3164"
         inkscape:connector-curvature="0" />
      <path
         d="m 997.25994,819.01709 0,-19.95367 2.53275,0 0,19.95367 z"
         style="fill:#ffffff;font-family:Raleway;-inkscape-font-specification:Raleway"
         id="path3166"
         inkscape:connector-curvature="0" />
      <path
         d="m 1019.0077,801.28699 -6.8948,0 0,17.7301 -2.5328,0 0,-17.7301 -6.8948,0 0,-2.25105 16.3224,0 z"
         style="fill:#ffffff;font-family:Raleway;-inkscape-font-specification:Raleway"
         id="path3168"
         inkscape:connector-curvature="0" />
      <path
         d="m 1035.4496,816.76604 0,2.25105 -13.5647,0 0,-19.98115 13.3122,0 0,2.25105 -10.7795,0 0,6.47315 9.3718,0 0,2.1102 -9.3718,0 0,6.8957 z"
         style="fill:#ffffff;font-family:Raleway;-inkscape-font-specification:Raleway"
         id="path3170"
         inkscape:connector-curvature="0" />
      <path
         d="m 1050.8264,803.22885 c -0.225,-0.2628 -0.5252,-0.51616 -0.9005,-0.76009 -0.3753,-0.24389 -0.7974,-0.46433 -1.2664,-0.66131 -0.4689,-0.19695 -0.9802,-0.35641 -1.5339,-0.47838 -0.5536,-0.12194 -1.1305,-0.18292 -1.7305,-0.18294 -1.5574,2e-5 -2.6973,0.29089 -3.4196,0.8726 -0.7223,0.58174 -1.0834,1.37904 -1.0834,2.39189 0,0.54453 0.1032,0.995 0.3096,1.35141 0.2064,0.35643 0.5301,0.66132 0.971,0.91467 0.4408,0.25337 0.9896,0.47381 1.6464,0.66132 0.6567,0.18752 1.4354,0.38434 2.336,0.59045 1.0318,0.22561 1.9651,0.48369 2.7999,0.77426 0.8348,0.29059 1.5478,0.65173 2.139,1.08344 0.5911,0.43172 1.0414,0.95705 1.3509,1.57599 0.3095,0.61895 0.4642,1.37875 0.4642,2.27939 0,0.95676 -0.1876,1.78698 -0.5629,2.49066 -0.3754,0.70369 -0.8867,1.28542 -1.5339,1.74519 -0.6473,0.45977 -1.4119,0.79744 -2.2936,1.01301 -0.8818,0.21557 -1.8385,0.32336 -2.8703,0.32336 -1.5385,0 -2.9972,-0.23919 -4.3763,-0.71757 -1.379,-0.47838 -2.6313,-1.17706 -3.757,-2.09603 l 1.2101,-2.13939 c 0.3001,0.31892 0.6893,0.63784 1.1676,0.95676 0.4784,0.31892 1.0225,0.60506 1.6323,0.85842 0.6098,0.25336 1.2665,0.45977 1.9702,0.61923 0.7037,0.15946 1.44,0.23919 2.2089,0.23919 1.4263,0 2.5334,-0.25322 3.3212,-0.75965 0.7879,-0.50644 1.1818,-1.26638 1.1818,-2.27982 0,-0.56283 -0.1267,-1.03649 -0.38,-1.42097 -0.2534,-0.38447 -0.6239,-0.71742 -1.1114,-0.99884 -0.4875,-0.28141 -1.0926,-0.53005 -1.8152,-0.74591 -0.7226,-0.21585 -1.5433,-0.43629 -2.4623,-0.66132 -1.0134,-0.2439 -1.9048,-0.50657 -2.674,-0.78799 -0.7693,-0.28141 -1.4118,-0.61922 -1.9277,-1.01345 -0.5159,-0.3942 -0.9051,-0.87272 -1.1676,-1.43557 -0.2625,-0.56282 -0.3938,-1.23816 -0.3938,-2.02602 0,-0.95675 0.1782,-1.801 0.5346,-2.53275 0.3564,-0.73173 0.8536,-1.35081 1.4914,-1.85727 0.6379,-0.50641 1.3976,-0.88631 2.2794,-1.13969 0.8818,-0.25334 1.8385,-0.38002 2.8703,-0.38004 1.3512,2e-5 2.5709,0.20643 3.6591,0.61923 1.0882,0.41284 2.0542,0.96622 2.8982,1.66016 z"
         style="fill:#ffffff;font-family:Raleway;-inkscape-font-specification:Raleway"
         id="path3172"
         inkscape:connector-curvature="0" />
    </g>
  </g>
</svg>
