<?xml version="1.0" encoding="UTF-8" standalone="no"?>
<!-- Created with Inkscape (https://www.inkscape.org/) -->

<svg
   xmlns:dc="https://purl.org/dc/elements/1.1/"
   xmlns:cc="https://creativecommons.org/ns#"
   xmlns:rdf="https://www.w3.org/1999/02/22-rdf-syntax-ns#"
   xmlns:svg="https://www.w3.org/2000/svg"
   xmlns="https://www.w3.org/2000/svg"
   xmlns:sodipodi="https://sodipodi.sourceforge.net/DTD/sodipodi-0.dtd"
   xmlns:inkscape="https://www.inkscape.org/namespaces/inkscape"
   width="305.12549"
   height="119.70308"
   id="svg5033"
   version="1.1"
   inkscape:version="0.48.4 r9939"
   sodipodi:docname="os-logo.svg">
  <defs
     id="defs5035" />
  <sodipodi:namedview
     id="base"
     pagecolor="#ffffff"
     bordercolor="#666666"
     borderopacity="1.0"
     inkscape:pageopacity="0.0"
     inkscape:pageshadow="2"
     inkscape:zoom="1.979899"
     inkscape:cx="226.92806"
     inkscape:cy="50.656146"
     inkscape:document-units="px"
     inkscape:current-layer="g3023"
     showgrid="false"
     inkscape:window-width="1280"
     inkscape:window-height="1000"
     inkscape:window-x="0"
     inkscape:window-y="24"
     inkscape:window-maximized="1"
     fit-margin-top="0"
     fit-margin-left="0"
     fit-margin-right="0"
     fit-margin-bottom="0" />
  <metadata
     id="metadata5038">
    <rdf:RDF>
      <cc:Work
         rdf:about="">
        <dc:format>image/svg+xml</dc:format>
        <dc:type
           rdf:resource="https://purl.org/dc/dcmitype/StillImage" />
        <dc:title></dc:title>
      </cc:Work>
    </rdf:RDF>
  </metadata>
  <g
     inkscape:label="Layer 1"
     inkscape:groupmode="layer"
     id="layer1"
     transform="translate(-299.6163,-400.13513)">
    <g
       id="g5095">
      <g
         id="g3023">
        <g
           transform="matrix(1.5490196,0,0,1.5490196,-248.25516,-252.54169)"
           id="g5082">
          <g
             inkscape:export-ydpi="90"
             inkscape:export-xdpi="90"
             inkscape:export-filename="/home/ryan/Pictures/open sprites/os3.png"
             style="fill:#ffffff"
             transform="translate(-998.81912,382.93647)"
             id="g9212">
            <g
               style="fill:#ffffff"
               transform="matrix(2.7299333,0,0,2.7299333,-1820.3411,-7.0306086)"
               id="g9220">
              <g
                 style="fill:#ffffff"
                 id="g9222"
                 transform="matrix(0.62436546,0,0,0.62436546,438.48624,4.5611745)">
                <path
                   transform="matrix(0.31100482,0,0,0.31100482,720.87177,37.79203)"
                   style="fill:#ffffff;fill-opacity:1;stroke:none"
                   d="m 1495.8929,-10.941391 c 0,10.30602838 -8.3547,18.6607151 -18.6607,18.6607151 -10.3061,0 -18.6607,-8.35468672 -18.6607,-18.6607151 0,-10.306028 8.3546,-18.660715 18.6607,-18.660715 10.306,0 18.6607,8.354687 18.6607,18.660715 z"
                   id="path9224" />
                <path
                   style="fill:#ffffff;fill-opacity:1;stroke:none"
                   d="m 1180.1783,28.585651 5.9978,0 0,11.581086 -5.9978,0 z"
                   id="rect9226" />
              </g>
              <g
                 style="fill:#ffffff"
                 id="g9228"
                 transform="matrix(-0.62436546,0,0,-0.62436546,1911.7385,57.037993)">
                <path
                   transform="matrix(0.31100482,0,0,0.31100482,720.87177,37.79203)"
                   style="fill:#ffffff;fill-opacity:1;stroke:none"
                   d="m 1495.8929,-10.941391 c 0,10.30602838 -8.3547,18.6607151 -18.6607,18.6607151 -10.3061,0 -18.6607,-8.35468672 -18.6607,-18.6607151 0,-10.306028 8.3546,-18.660715 18.6607,-18.660715 10.306,0 18.6607,8.354687 18.6607,18.660715 z"
                   id="path9230" />
                <path
                   style="fill:#ffffff;fill-opacity:1;stroke:none"
                   d="m 1180.1783,28.585651 5.9978,0 0,11.581086 -5.9978,0 z"
                   id="rect9232" />
              </g>
            </g>
          </g>
          <g
             style="font-size:16px;font-style:normal;font-variant:normal;font-weight:normal;font-stretch:normal;line-height:125%;letter-spacing:0px;word-spacing:0px;fill:#ffffff;fill-opacity:1;stroke:none;font-family:Bowlby One;-inkscape-font-specification:Bowlby One"
             id="text9246">
            <path
               d="m 419.78668,459.71829 c 0,0.005 -0.003,0.0182 -0.008,0.0391 l 0,0.0234 c -0.0208,0.21876 -0.0313,0.46355 -0.0313,0.73438 -10e-6,0.27084 0.0208,0.55729 0.0625,0.85937 0.0469,0.30209 0.11979,0.60417 0.21875,0.90625 0.10416,0.30209 0.26302,0.54688 0.47656,0.73438 0.22916,0.19792 0.48437,0.29687 0.76563,0.29687 0.28645,0 0.52603,-0.0391 0.71875,-0.11719 0.19791,-0.0833 0.36197,-0.18749 0.49218,-0.3125 0.13541,-0.12499 0.2526,-0.29426 0.35157,-0.50781 0.24999,-0.5677 0.37499,-1.44791 0.375,-2.64062 -10e-6,-1.21354 -0.14064,-2.06249 -0.42188,-2.54688 -0.27605,-0.48957 -0.69532,-0.73436 -1.25781,-0.73437 -0.28126,10e-6 -0.52865,0.0677 -0.74219,0.20312 -0.20834,0.13543 -0.36719,0.27605 -0.47656,0.42188 -0.10417,0.14584 -0.21355,0.45573 -0.32813,0.92968 -0.10938,0.47397 -0.16406,0.91147 -0.16406,1.3125 l -0.0313,0.39844 m -4.49219,0.0625 0.0156,-0.17187 c 0.0625,-0.65104 0.14583,-1.22656 0.25,-1.72657 0.10417,-0.5052 0.27344,-0.97655 0.50781,-1.41406 0.55729,-0.96353 1.33333,-1.6927 2.32813,-2.1875 0.99999,-0.49999 2.07551,-0.74999 3.22656,-0.75 1.15624,10e-6 2.20572,0.23178 3.14844,0.69531 0.56249,0.27606 1.00259,0.62502 1.32031,1.04688 0.60936,0.76043 1.0104,1.46095 1.20312,2.10156 0.1927,0.64063 0.28905,1.38022 0.28907,2.21875 -2e-5,1.86459 -0.38543,3.28646 -1.15625,4.26563 l -0.35938,0.47656 c -0.48438,0.5625 -1.16928,0.9974 -2.05469,1.30469 -0.88542,0.30208 -1.76302,0.45833 -2.63281,0.46875 -1.48959,0 -2.71094,-0.3125 -3.66406,-0.9375 -1.61458,-1.04688 -2.42188,-2.84375 -2.42188,-5.39063"
               style="font-weight:bold;fill:#ffffff;font-family:Bowlby One;-inkscape-font-specification:Bowlby One Bold"
               id="path3039" />
            <path
               d="m 428.77887,460.49173 0.0156,-3.21094 0,-3.25781 c 0.0104,-0.005 0.0599,-0.008 0.14844,-0.008 l 0.28906,0 c 0.10938,10e-6 0.19271,-0.005 0.25,-0.0156 l 0.96875,-0.0391 c 0.25,-0.0104 0.44271,-0.0156 0.57813,-0.0156 l 1.24219,0 2.29687,-0.0547 c 0.3125,10e-6 0.65624,0.013 1.03125,0.0391 l 0.0547,0 c 0.17707,-0.0104 0.28905,-0.0156 0.33594,-0.0156 1.04165,2e-5 1.93228,0.33075 2.67187,0.99219 0.35937,0.31772 0.64322,0.72657 0.85156,1.22656 0.20833,0.50001 0.31249,1.01824 0.3125,1.55469 -10e-6,0.53126 -0.0547,0.98438 -0.16406,1.35938 -0.10938,0.375 -0.25001,0.69271 -0.42187,0.95312 -0.68751,1.05209 -2.01824,1.66667 -3.99219,1.84375 l -1.6875,0.0703 c -0.0521,1.25001 -0.0781,2.22136 -0.0781,2.91407 l 0.008,0.24218 0,0.63282 c -0.0208,0.0729 -0.0599,0.12239 -0.11719,0.14843 l -4.46094,0.0703 c -0.0885,-0.25 -0.13281,-0.65104 -0.13281,-1.20313 l 0,-4.22656 m 6.83594,-3.35156 c -0.20834,-0.54687 -0.76043,-0.83854 -1.65625,-0.875 -0.13022,-0.005 -0.3099,-0.008 -0.53907,-0.008 -0.0625,1e-5 -0.10156,0.76824 -0.11718,2.30469 l -0.0156,0.58594 0.0234,0.46875 c 0.64062,-0.0104 1.20312,-0.14583 1.6875,-0.40625 0.48958,-0.26041 0.73437,-0.73437 0.73437,-1.42188 0,-0.29165 -0.0391,-0.5078 -0.11718,-0.64843"
               style="font-weight:bold;fill:#ffffff;font-family:Bowlby One;-inkscape-font-specification:Bowlby One Bold"
               id="path3041" />
            <path
               d="m 440.69293,455.98392 -0.0391,-2.05469 c 0.005,10e-6 0.0234,0.008 0.0547,0.0234 3.95833,-0.0677 6.94009,-0.10416 8.94531,-0.10938 0.0208,0.0104 0.0365,0.0261 0.0469,0.0469 l 0,2.20312 c -10e-6,0.21355 -0.005,0.38803 -0.0156,0.52344 -0.026,0.0833 -0.1797,0.12501 -0.46094,0.125 l -0.0547,0 c -1.26042,10e-6 -2.57292,-0.0208 -3.9375,-0.0625 0,0.0469 -0.008,0.13022 -0.0234,0.25 -0.0104,0.1198 -0.0182,0.20574 -0.0234,0.25781 l -0.0391,0.29688 c -0.026,0.19792 -0.0443,0.54167 -0.0547,1.03125 l 2.42187,-0.0547 c 0.41666,-0.0104 0.71875,-0.0156 0.90625,-0.0156 l 0.125,0 c 0.3177,1e-5 0.52604,0.0104 0.625,0.0313 0.099,0.0156 0.14843,0.0677 0.14844,0.15625 l -0.008,0.0625 0,0.1875 0.0391,2.00782 -0.008,0.008 0,-0.008 c -1.58334,0.0781 -2.84897,0.11719 -3.79688,0.11718 l -0.36718,0 0,1.89063 4.24218,-0.13281 c 0.23437,0 0.38281,0.0338 0.44532,0.10156 -0.005,0.13542 -0.008,0.32813 -0.008,0.57812 l 0.0547,2.125 c -10e-6,0.13021 -0.0573,0.20573 -0.17187,0.22657 l -2.59375,-0.0234 c -0.51043,0 -1.52605,0.0182 -3.04688,0.0547 l -1.28125,0.0313 c -0.90625,0.0313 -1.57812,0.0469 -2.01562,0.0469 l -0.0234,-0.0156 0.008,0 c -0.0521,-0.0521 -0.10156,-0.10157 -0.14844,-0.14844 l 0,-0.27344 0.0469,-8.35156 0.008,-1.13281"
               style="font-weight:bold;fill:#ffffff;font-family:Bowlby One;-inkscape-font-specification:Bowlby One Bold"
               id="path3043" />
            <path
               d="m 462.73199,460.18704 -0.008,0.52344 0,2.89062 0.0156,1.375 0,0.39063 0.008,0.36719 c -0.0313,0.0417 -0.15887,0.0625 -0.38281,0.0625 l -0.20313,0 -2.45312,0.0313 c -1.04168,0 -1.81772,-0.003 -2.32813,-0.008 -0.0781,-0.0833 -0.36198,-0.84114 -0.85156,-2.27343 l -1.49219,-3.96094 -0.28125,0.0391 -0.008,0.79688 0,2.11718 0.0313,2.11719 0,0.875 c -10e-6,0.23438 -0.0521,0.35677 -0.15625,0.36719 -0.51563,-0.0156 -1.00782,-0.0234 -1.47656,-0.0234 l -0.24219,0 -1.17969,0.0313 -0.15625,0 -0.5625,0.0156 -0.0234,-0.0156 c -0.17187,-0.16146 -0.25781,-0.27864 -0.25781,-0.35156 l 0,-0.14063 0.008,-0.15625 0.0391,-3.04687 c 0,-3.34374 0.0313,-5.87239 0.0937,-7.58594 l 0.0156,-0.64844 c 0,-0.0469 1.79427,-0.0885 5.38281,-0.125 0.0313,0.0209 0.0781,0.13543 0.14063,0.34375 l 0,-0.0234 0.0469,0.15625 c 0.38541,1.10417 0.85416,2.3724 1.40625,3.80468 0.55208,1.42709 0.83333,2.15626 0.84375,2.1875 l 0.26563,-0.0156 0.0313,-6.36719 c -10e-6,-0.0417 0.3802,-0.0625 1.14062,-0.0625 l 1.96094,0.0391 0.57813,0 c 0.0364,1.72397 0.0547,3.81512 0.0547,6.27344"
               style="font-weight:bold;fill:#ffffff;font-family:Bowlby One;-inkscape-font-specification:Bowlby One Bold"
               id="path3045" />
            <path
               d="m 471.63306,456.42379 c -0.32001,-0.36265 -0.75201,-0.65599 -1.296,-0.88 -0.53334,-0.22399 -1.13601,-0.33599 -1.808,-0.336 -1.01334,1e-5 -1.74934,0.19201 -2.208,0.576 -0.45867,0.37335 -0.688,0.88534 -0.688,1.536 0,0.34134 0.0587,0.62401 0.176,0.848 0.12799,0.21334 0.31999,0.40001 0.576,0.56 0.26666,0.16001 0.59733,0.29868 0.992,0.416 0.40533,0.11734 0.87999,0.23468 1.424,0.352 0.60799,0.12801 1.15199,0.27201 1.632,0.432 0.47999,0.14934 0.89066,0.34667 1.232,0.592 0.34132,0.23467 0.60266,0.52801 0.784,0.88 0.18132,0.34134 0.27199,0.76801 0.272,1.28 -1e-5,0.52267 -0.10135,0.976 -0.304,1.36 -0.20268,0.384 -0.48534,0.704 -0.848,0.96 -0.36268,0.256 -0.79468,0.448 -1.296,0.576 -0.50134,0.11734 -1.04534,0.176 -1.632,0.176 -1.78134,0 -3.30134,-0.54933 -4.56,-1.648 l 0.544,-0.912 c 0.416,0.43734 0.976,0.81067 1.68,1.12 0.70399,0.29867 1.48799,0.448 2.352,0.448 0.90666,0 1.61599,-0.16 2.128,-0.48 0.51199,-0.33066 0.76799,-0.82666 0.768,-1.488 -1e-5,-0.35199 -0.0747,-0.64533 -0.224,-0.88 -0.13868,-0.24533 -0.35201,-0.45333 -0.64,-0.624 -0.28801,-0.18133 -0.65068,-0.33599 -1.088,-0.464 -0.42668,-0.12799 -0.92267,-0.25599 -1.488,-0.384 -0.59734,-0.13866 -1.12001,-0.28266 -1.568,-0.432 -0.44801,-0.14933 -0.82667,-0.33599 -1.136,-0.56 -0.29867,-0.22399 -0.528,-0.49066 -0.688,-0.8 -0.14934,-0.31999 -0.224,-0.70932 -0.224,-1.168 0,-0.52266 0.096,-0.98666 0.288,-1.392 0.20266,-0.41599 0.48,-0.75732 0.832,-1.024 0.36266,-0.27732 0.78933,-0.48532 1.28,-0.624 0.50133,-0.14932 1.05066,-0.22399 1.648,-0.224 0.74666,10e-6 1.41332,0.11735 2,0.352 0.59732,0.22401 1.13599,0.54401 1.616,0.96 l -0.528,0.896"
               style="fill:#ffffff;font-family:Raleway;-inkscape-font-specification:Raleway"
               id="path3047" />
            <path
               d="m 474.74231,465.65579 0,-11.36 4.704,0 c 0.49066,10e-6 0.93866,0.10668 1.344,0.32 0.41599,0.20268 0.77332,0.47468 1.072,0.816 0.29865,0.33068 0.52799,0.70935 0.688,1.136 0.17065,0.42668 0.25599,0.85868 0.256,1.296 -10e-6,0.46934 -0.08,0.92268 -0.24,1.36 -0.14935,0.42667 -0.36801,0.80534 -0.656,1.136 -0.28801,0.33067 -0.63468,0.59734 -1.04,0.8 -0.39468,0.20267 -0.83734,0.30401 -1.328,0.304 l -3.696,0 0,4.192 -1.104,0 m 1.104,-5.184 3.632,0 c 0.33066,10e-6 0.62932,-0.0693 0.896,-0.208 0.27732,-0.14933 0.51199,-0.34133 0.704,-0.576 0.19199,-0.24532 0.34132,-0.52266 0.448,-0.832 0.10666,-0.31999 0.15999,-0.65066 0.16,-0.992 -10e-6,-0.35199 -0.064,-0.68266 -0.192,-0.992 -0.11734,-0.31999 -0.28268,-0.59732 -0.496,-0.832 -0.20268,-0.23465 -0.44801,-0.41599 -0.736,-0.544 -0.27734,-0.13865 -0.57068,-0.20799 -0.88,-0.208 l -3.536,0 0,5.184"
               style="fill:#ffffff;font-family:Raleway;-inkscape-font-specification:Raleway"
               id="path3049" />
            <path
               d="m 484.67981,465.65579 0,-11.36 4.784,0 c 0.49066,10e-6 0.94399,0.10668 1.36,0.32 0.41599,0.20268 0.77332,0.47468 1.072,0.816 0.29865,0.33068 0.52799,0.70935 0.688,1.136 0.17065,0.42668 0.25599,0.85868 0.256,1.296 -10e-6,0.41601 -0.064,0.81601 -0.192,1.2 -0.11735,0.37334 -0.28801,0.71467 -0.512,1.024 -0.22401,0.29867 -0.49068,0.55467 -0.8,0.768 -0.30934,0.20267 -0.65601,0.34134 -1.04,0.416 l 2.8,4.384 -1.264,0 -2.688,-4.192 -3.36,0 0,4.192 -1.104,0 m 1.104,-5.184 3.728,0 c 0.33066,10e-6 0.62932,-0.0693 0.896,-0.208 0.27732,-0.14933 0.51199,-0.34666 0.704,-0.592 0.19199,-0.24532 0.34132,-0.52266 0.448,-0.832 0.10666,-0.30932 0.15999,-0.63466 0.16,-0.976 -10e-6,-0.34132 -0.064,-0.66666 -0.192,-0.976 -0.11734,-0.31999 -0.28268,-0.59732 -0.496,-0.832 -0.20268,-0.23465 -0.44801,-0.42132 -0.736,-0.56 -0.27734,-0.13865 -0.57068,-0.20799 -0.88,-0.208 l -3.632,0 0,5.184"
               style="fill:#ffffff;font-family:Raleway;-inkscape-font-specification:Raleway"
               id="path3051" />
            <path
               d="m 495.24231,465.65579 0,-11.344 1.104,0 0,11.344 -1.104,0"
               style="fill:#ffffff;font-family:Raleway;-inkscape-font-specification:Raleway"
               id="path3053" />
            <path
               d="m 507.29106,455.28779 -4.048,0 0,10.368 -1.12,0 0,-10.368 -4.048,0 0,-0.992 9.216,0 0,0.992"
               style="fill:#ffffff;font-family:Raleway;-inkscape-font-specification:Raleway"
               id="path3055" />
            <path
               d="m 516.65556,464.66379 0,0.992 -7.632,0 0,-11.36 7.488,0 0,0.992 -6.384,0 0,4.096 5.568,0 0,0.944 -5.568,0 0,4.336 6.528,0"
               style="fill:#ffffff;font-family:Raleway;-inkscape-font-specification:Raleway"
               id="path3057" />
            <path
               d="m 525.32056,456.42379 c -0.32001,-0.36265 -0.75201,-0.65599 -1.296,-0.88 -0.53334,-0.22399 -1.13601,-0.33599 -1.808,-0.336 -1.01334,1e-5 -1.74934,0.19201 -2.208,0.576 -0.45867,0.37335 -0.688,0.88534 -0.688,1.536 0,0.34134 0.0587,0.62401 0.176,0.848 0.12799,0.21334 0.31999,0.40001 0.576,0.56 0.26666,0.16001 0.59733,0.29868 0.992,0.416 0.40533,0.11734 0.87999,0.23468 1.424,0.352 0.60799,0.12801 1.15199,0.27201 1.632,0.432 0.47999,0.14934 0.89066,0.34667 1.232,0.592 0.34132,0.23467 0.60266,0.52801 0.784,0.88 0.18132,0.34134 0.27199,0.76801 0.272,1.28 -10e-6,0.52267 -0.10135,0.976 -0.304,1.36 -0.20268,0.384 -0.48534,0.704 -0.848,0.96 -0.36268,0.256 -0.79468,0.448 -1.296,0.576 -0.50134,0.11734 -1.04534,0.176 -1.632,0.176 -1.78134,0 -3.30134,-0.54933 -4.56,-1.648 l 0.544,-0.912 c 0.416,0.43734 0.976,0.81067 1.68,1.12 0.70399,0.29867 1.48799,0.448 2.352,0.448 0.90666,0 1.61599,-0.16 2.128,-0.48 0.51199,-0.33066 0.76799,-0.82666 0.768,-1.488 -10e-6,-0.35199 -0.0747,-0.64533 -0.224,-0.88 -0.13868,-0.24533 -0.35201,-0.45333 -0.64,-0.624 -0.28801,-0.18133 -0.65068,-0.33599 -1.088,-0.464 -0.42668,-0.12799 -0.92267,-0.25599 -1.488,-0.384 -0.59734,-0.13866 -1.12001,-0.28266 -1.568,-0.432 -0.44801,-0.14933 -0.82667,-0.33599 -1.136,-0.56 -0.29867,-0.22399 -0.528,-0.49066 -0.688,-0.8 -0.14934,-0.31999 -0.224,-0.70932 -0.224,-1.168 0,-0.52266 0.096,-0.98666 0.288,-1.392 0.20266,-0.41599 0.48,-0.75732 0.832,-1.024 0.36266,-0.27732 0.78933,-0.48532 1.28,-0.624 0.50133,-0.14932 1.05066,-0.22399 1.648,-0.224 0.74666,10e-6 1.41332,0.11735 2,0.352 0.59732,0.22401 1.13599,0.54401 1.616,0.96 l -0.528,0.896"
               style="fill:#ffffff;font-family:Raleway;-inkscape-font-specification:Raleway"
               id="path3059" />
          </g>
        </g>
      </g>
    </g>
  </g>
</svg>
