<?xml version="1.0" encoding="utf-8"?>
<svg version="1.1" id="Layer_1"
xmlns="http://www.w3.org/2000/svg"
xmlns:xlink="http://www.w3.org/1999/xlink"
width="60px" height="60px"
xml:space="preserve">
<g id="PathID_207" transform="matrix(0.356373, 0, 0, 0.356373, 6.55, 2.2)" opacity="1">
<path style="fill:#FFFFFF;fill-opacity:1" d="M134.3 41.1L114.15 52.75L134.3 64.3L130.95 71.25L106.55 57.45L74.7 75.35L106.55 93.25L130.95 79.45L134.3 85.8L114.15 97.95L134.3 109.6L130.95 116.45L110.05 104.45L110.05 128.1L102.6 128.1L102.6 100.35L71.25 81.85L71.25 118.25L95.65 132.2L92.15 138.4L71.25 127.05L71.25 150.7L63.8 150.7L63.8 127.05L42.9 138.4L39.4 132.2L63.8 118.25L63.8 81.85L32.45 100.35L32.45 128.1L24.4 128.1L24.4 104.45L4.1 116.45L0 109.6L20.9 97.95L0 85.8L4.1 79.45L28.5 93.25L59.55 75.35L28.5 57.45L4.1 71.25L0 64.3L20.9 52.75L0 41.1L4.1 34.3L24.4 46.4L24.4 22.6L32.45 22.6L32.45 50.5L63.8 69L63.8 32.6L39.4 18.5L42.9 11.7L63.8 23.8L63.8 0L71.25 0L71.25 23.8L91.55 11.7L95.65 18.5L71.25 32.6L71.25 69L102.6 50.5L102.6 22.6L110.05 22.6L110.05 46.4L130.95 34.3L134.3 41.1" />
</g>
<g id="PathID_208" transform="matrix(0.356373, 0, 0, 0.356373, 6.55, 2.2)" opacity="1">
</g>
</svg>
