<?xml version="1.0" encoding="utf-8"?>
<svg version="1.1" id="Layer_1"
xmlns="http://www.w3.org/2000/svg"
xmlns:xlink="http://www.w3.org/1999/xlink"
width="512px" height="512px"
xml:space="preserve">
<g id="PathID_1" transform="matrix(-2.13895, -1.86993e-007, 0, 2.13895, 442, 90.7)" opacity="1">
<path style="fill:#FFFFFF;fill-opacity:1" d="M148.25 46.55Q151.2 50.4 149.4 56.05L147.65 62.95L127.35 120.5L0 120.5L0.9 118.1L0.9 12.55Q0.9 0 13.45 0L46.85 0Q57.25 0 62.95 8.35L64.7 11.05Q67.4 15.5 73.05 15.5L110.65 15.5Q123.15 15.5 123.15 28.05L123.15 42.05L139.3 42.05Q145.25 42.05 148.25 46.55M113.65 28.05Q113.65 25.05 110.65 25.05L73.05 25.05Q62.35 25.05 56.65 16.7L54.9 14Q52.2 9.55 46.85 9.55L13.45 9.55Q10.75 9.55 10.75 12.55L10.75 89.2L23.25 52.8Q27.15 42.05 38.5 42.05L113.65 42.05L113.65 28.05" />
</g>
<g id="PathID_2" transform="matrix(-2.13895, -1.86993e-007, 0, 2.13895, 442, 90.7)" opacity="1">
</g>
<g id="PathID_3" transform="matrix(1.60463, 0, 0, 1.60463, 68.85, 412)" opacity="1">
<path style="fill:#FFFFFF;fill-opacity:1" d="M28.15 -17.7Q28.15 -13.55 27.4 -10.15Q26.65 -6.75 25.05 -4.3Q23.5 -1.9 21.1 -0.55Q18.75 0.75 15.5 0.75Q12.25 0.75 9.85 -0.55Q7.5 -1.9 5.9 -4.3Q4.35 -6.75 3.6 -10.15Q2.85 -13.55 2.85 -17.7Q2.85 -21.85 3.6 -25.25Q4.35 -28.7 5.9 -31.1Q7.5 -33.55 9.85 -34.9Q12.25 -36.3 15.5 -36.3Q18.75 -36.3 21.1 -34.9Q23.5 -33.55 25.05 -31.1Q26.65 -28.7 27.4 -25.25Q28.15 -21.85 28.15 -17.7M23.25 -17.7Q23.25 -20.9 22.8 -23.55Q22.4 -26.25 21.45 -28.15Q20.55 -30.1 19.05 -31.15Q17.6 -32.25 15.5 -32.25Q13.4 -32.25 11.9 -31.15Q10.45 -30.1 9.5 -28.15Q8.6 -26.25 8.15 -23.55Q7.75 -20.9 7.75 -17.7Q7.75 -14.5 8.15 -11.8Q8.6 -9.15 9.5 -7.25Q10.45 -5.35 11.9 -4.3Q13.4 -3.3 15.5 -3.3Q17.6 -3.3 19.05 -4.3Q20.55 -5.35 21.45 -7.25Q22.4 -9.15 22.8 -11.8Q23.25 -14.5 23.25 -17.7" />
</g>
<g id="PathID_4" transform="matrix(1.60463, 0, 0, 1.60463, 68.85, 412)" opacity="1">
</g>
<g id="PathID_5" transform="matrix(1.60463, 0, 0, 1.60463, 118.55, 412)" opacity="1">
<path style="fill:#FFFFFF;fill-opacity:1" d="M8.35 -4.05Q9.8 -3.25 11.5 -3.25Q12.8 -3.25 13.75 -3.75Q14.75 -4.25 15.4 -5.4Q16.1 -6.6 16.45 -8.55Q16.85 -10.5 16.85 -13.35Q16.85 -18.85 15.4 -21.25Q14 -23.65 10.95 -23.65L9.7 -23.55L8.35 -23.25L8.35 -4.05M8.35 9.45L3.95 9.45L3.95 -26.15Q5.35 -26.75 7.15 -27.15Q9 -27.55 10.9 -27.55Q13.7 -27.55 15.7 -26.55Q17.75 -25.6 19 -23.75Q20.25 -21.95 20.85 -19.3Q21.45 -16.7 21.45 -13.3Q21.45 -6.5 19.25 -2.9Q17.1 0.65 12.15 0.65Q11 0.65 10.05 0.4Q9.15 0.2 8.35 -0.2L8.35 9.45" />
</g>
<g id="PathID_6" transform="matrix(1.60463, 0, 0, 1.60463, 118.55, 412)" opacity="1">
</g>
<g id="PathID_7" transform="matrix(1.60463, 0, 0, 1.60463, 156.9, 412)" opacity="1">
<path style="fill:#FFFFFF;fill-opacity:1" d="M7 -12.15Q7.05 -10.2 7.35 -8.55Q7.65 -6.95 8.3 -5.75Q9 -4.55 10.15 -3.9Q11.3 -3.25 13.1 -3.25Q14.6 -3.25 15.85 -3.65Q17.1 -4.1 17.65 -4.4L18.5 -0.85Q17.8 -0.4 16.25 0.1Q14.7 0.65 12.55 0.65Q9.75 0.65 7.8 -0.35Q5.9 -1.35 4.7 -3.2Q3.5 -5.05 3 -7.6Q2.5 -10.2 2.5 -13.25Q2.5 -20.65 4.95 -24.1Q7.4 -27.55 11.45 -27.55Q16 -27.55 17.9 -24.1Q19.8 -20.65 19.8 -14.5L19.8 -13.3L19.7 -12.15L7 -12.15M11.45 -23.8Q9.25 -23.8 8.25 -21.6Q7.25 -19.4 7.05 -15.75L15.2 -15.75Q15.2 -19.45 14.4 -21.6Q13.65 -23.8 11.45 -23.8" />
</g>
<g id="PathID_8" transform="matrix(1.60463, 0, 0, 1.60463, 156.9, 412)" opacity="1">
</g>
<g id="PathID_9" transform="matrix(1.60463, 0, 0, 1.60463, 192.65, 412)" opacity="1">
<path style="fill:#FFFFFF;fill-opacity:1" d="M4 -26.1Q5.85 -26.65 8.05 -27.05Q10.25 -27.45 12.1 -27.45Q14.1 -27.45 15.75 -26.9Q17.4 -26.35 18.55 -25.05Q19.7 -23.8 20.35 -21.6Q21 -19.45 21 -16.2L21 0L16.6 0L16.6 -15.85Q16.6 -19.85 15.55 -21.7Q14.55 -23.55 11.7 -23.55Q10.2 -23.55 8.4 -23L8.4 0L4 0L4 -26.1" />
</g>
<g id="PathID_10" transform="matrix(1.60463, 0, 0, 1.60463, 192.65, 412)" opacity="1">
</g>
<g id="PathID_11" transform="matrix(1.60463, 0, 0, 1.60463, 232.3, 412)" opacity="1">
<path style="fill:#FFFFFF;fill-opacity:1" d="M8.7 -3.2Q11.45 -3.2 12.95 -4.7Q14.5 -6.25 14.5 -8.85Q14.5 -10.25 14 -11.3Q13.55 -12.4 12.8 -13.25Q12.05 -14.1 11.05 -14.8L9.1 -16.25L6.6 -18Q5.35 -18.9 4.3 -20.15Q3.25 -21.4 2.6 -23Q1.95 -24.65 1.95 -26.85Q1.95 -29 2.65 -30.75Q3.4 -32.5 4.7 -33.7Q6 -34.95 7.8 -35.6Q9.65 -36.3 11.75 -36.3Q13.8 -36.3 15.55 -35.75Q17.3 -35.25 18.5 -34.55L17.05 -30.9Q15.95 -31.6 14.7 -32Q13.45 -32.4 12.05 -32.4Q9.55 -32.4 8.05 -31Q6.55 -29.65 6.55 -27.05Q6.55 -25.65 7 -24.55Q7.5 -23.5 8.3 -22.6Q9.1 -21.75 10.15 -21L12.35 -19.55Q13.55 -18.8 14.75 -17.85Q16 -16.95 17 -15.75Q18 -14.55 18.65 -12.9Q19.3 -11.3 19.3 -9.1Q19.3 -7.1 18.65 -5.3Q18.05 -3.55 16.75 -2.15Q15.45 -0.8 13.45 0Q11.5 0.75 8.85 0.75Q6.4 0.75 4.55 0.2Q2.7 -0.35 1.3 -1.25L2.7 -4.95Q4.05 -4.15 5.45 -3.65Q6.85 -3.2 8.7 -3.2" />
</g>
<g id="PathID_12" transform="matrix(1.60463, 0, 0, 1.60463, 232.3, 412)" opacity="1">
</g>
<g id="PathID_13" transform="matrix(1.60463, 0, 0, 1.60463, 265.15, 412)" opacity="1">
<path style="fill:#FFFFFF;fill-opacity:1" d="M8.35 -4.05Q9.8 -3.25 11.5 -3.25Q12.8 -3.25 13.75 -3.75Q14.75 -4.25 15.4 -5.4Q16.1 -6.6 16.45 -8.55Q16.85 -10.5 16.85 -13.35Q16.85 -18.85 15.4 -21.25Q14 -23.65 10.95 -23.65L9.7 -23.55L8.35 -23.25L8.35 -4.05M8.35 9.45L3.95 9.45L3.95 -26.15Q5.35 -26.75 7.15 -27.15Q9 -27.55 10.9 -27.55Q13.7 -27.55 15.7 -26.55Q17.75 -25.6 19 -23.75Q20.25 -21.95 20.85 -19.3Q21.45 -16.7 21.45 -13.3Q21.45 -6.5 19.25 -2.9Q17.1 0.65 12.15 0.65Q11 0.65 10.05 0.4Q9.15 0.2 8.35 -0.2L8.35 9.45" />
</g>
<g id="PathID_14" transform="matrix(1.60463, 0, 0, 1.60463, 265.15, 412)" opacity="1">
</g>
<g id="PathID_15" transform="matrix(1.60463, 0, 0, 1.60463, 303.5, 412)" opacity="1">
<path style="fill:#FFFFFF;fill-opacity:1" d="M15.6 -22.85Q13.95 -23.6 11.9 -23.6Q10 -23.6 8.4 -22.9L8.4 0L4 0L4 -25.7Q5.45 -26.4 7.35 -26.9Q9.3 -27.4 11.6 -27.4Q12.85 -27.4 14.05 -27.2Q15.3 -27.05 16.4 -26.65L15.6 -22.85" />
</g>
<g id="PathID_16" transform="matrix(1.60463, 0, 0, 1.60463, 303.5, 412)" opacity="1">
</g>
<g id="PathID_17" transform="matrix(1.60463, 0, 0, 1.60463, 330.45, 412)" opacity="1">
<path style="fill:#FFFFFF;fill-opacity:1" d="M8.4 0L4 0L4 -26.9L8.4 -26.9L8.4 0M6.2 -31.65Q5 -31.65 4.15 -32.4Q3.35 -33.2 3.35 -34.55Q3.35 -35.9 4.15 -36.7Q5 -37.5 6.2 -37.5Q7.4 -37.5 8.25 -36.7Q9.1 -35.9 9.1 -34.55Q9.1 -33.2 8.25 -32.4Q7.4 -31.65 6.2 -31.65" />
</g>
<g id="PathID_18" transform="matrix(1.60463, 0, 0, 1.60463, 330.45, 412)" opacity="1">
</g>
<g id="PathID_19" transform="matrix(1.60463, 0, 0, 1.60463, 350.35, 412)" opacity="1">
<path style="fill:#FFFFFF;fill-opacity:1" d="M8.1 -26.9L14.85 -26.9L14.85 -23.1L8.1 -23.1L8.1 -8.3Q8.1 -5.55 9.1 -4.45Q10.1 -3.35 11.75 -3.35Q12.65 -3.35 13.45 -3.6Q14.25 -3.85 14.8 -4.2L15.7 -0.65Q13.55 0.55 11.2 0.55Q7.4 0.55 5.55 -1.55Q3.7 -3.7 3.7 -8.6L3.7 -34.1L8.1 -34.9L8.1 -26.9" />
</g>
<g id="PathID_20" transform="matrix(1.60463, 0, 0, 1.60463, 350.35, 412)" opacity="1">
</g>
<g id="PathID_21" transform="matrix(1.60463, 0, 0, 1.60463, 376.25, 412)" opacity="1">
<path style="fill:#FFFFFF;fill-opacity:1" d="M7 -12.15Q7.05 -10.2 7.35 -8.55Q7.65 -6.95 8.3 -5.75Q9 -4.55 10.15 -3.9Q11.3 -3.25 13.1 -3.25Q14.6 -3.25 15.85 -3.65Q17.1 -4.1 17.65 -4.4L18.5 -0.85Q17.8 -0.4 16.25 0.1Q14.7 0.65 12.55 0.65Q9.75 0.65 7.8 -0.35Q5.9 -1.35 4.7 -3.2Q3.5 -5.05 3 -7.6Q2.5 -10.2 2.5 -13.25Q2.5 -20.65 4.95 -24.1Q7.4 -27.55 11.45 -27.55Q16 -27.55 17.9 -24.1Q19.8 -20.65 19.8 -14.5L19.8 -13.3L19.7 -12.15L7 -12.15M11.45 -23.8Q9.25 -23.8 8.25 -21.6Q7.25 -19.4 7.05 -15.75L15.2 -15.75Q15.2 -19.45 14.4 -21.6Q13.65 -23.8 11.45 -23.8" />
</g>
<g id="PathID_22" transform="matrix(1.60463, 0, 0, 1.60463, 376.25, 412)" opacity="1">
</g>
<g id="PathID_23" transform="matrix(1.60463, 0, 0, 1.60463, 412, 412)" opacity="1">
<path style="fill:#FFFFFF;fill-opacity:1" d="M7.7 -3.15Q9.65 -3.15 10.65 -4.2Q11.65 -5.3 11.65 -7.1Q11.65 -8.25 11.2 -9Q10.8 -9.8 10.15 -10.4Q9.5 -11.05 8.6 -11.5L6.85 -12.55L5.15 -13.75Q4.35 -14.45 3.7 -15.35Q3.1 -16.25 2.7 -17.4Q2.35 -18.55 2.35 -20.1Q2.35 -23.45 4.4 -25.5Q6.45 -27.55 10 -27.55Q11.5 -27.55 12.8 -27.15Q14.15 -26.75 15.05 -26.3L14.05 -22.75Q13.15 -23.25 12.2 -23.5Q11.3 -23.8 10.2 -23.8Q8.55 -23.8 7.6 -22.85Q6.65 -21.9 6.65 -20.1Q6.65 -19.1 7 -18.35Q7.35 -17.6 7.9 -17Q8.5 -16.4 9.25 -15.9L10.8 -14.95Q11.8 -14.4 12.7 -13.7Q13.65 -13.05 14.4 -12.15Q15.15 -11.25 15.6 -10.05Q16.1 -8.85 16.1 -7.15Q16.1 -3.65 14 -1.5Q11.95 0.65 7.95 0.65Q5.9 0.65 4.25 0.1Q2.65 -0.45 1.85 -0.9L2.75 -4.55Q3.5 -4.15 4.8 -3.65Q6.1 -3.15 7.7 -3.15" />
</g>
<g id="PathID_24" transform="matrix(1.60463, 0, 0, 1.60463, 412, 412)" opacity="1">
</g>
<g id="PathID_25" transform="matrix(0.9375, 0, 0, 0.9375, 426.25, 454.75)" opacity="1">
<path style="fill:#FFFFFF;fill-opacity:1" d="M8.9 -20.4L12.05 -20.4Q18.45 -20.4 18.45 -26.1Q18.45 -27.9 17.9 -29.05Q17.35 -30.2 16.45 -30.8Q15.6 -31.45 14.45 -31.7Q13.3 -32 12 -32L10.45 -31.9L8.9 -31.75L8.9 -20.4M8.9 -16.7L8.9 -3.9L10.8 -3.65L12.7 -3.55Q14.1 -3.55 15.4 -3.85Q16.7 -4.15 17.65 -4.85Q18.6 -5.55 19.15 -6.8Q19.7 -8.1 19.7 -9.9Q19.7 -13.1 17.95 -14.9Q16.25 -16.7 12.6 -16.7L8.9 -16.7M4.3 -34.95Q6.05 -35.35 7.9 -35.6Q9.8 -35.85 11.65 -35.85Q13.95 -35.85 16 -35.4Q18.1 -34.95 19.7 -33.9Q21.3 -32.85 22.25 -31.15Q23.2 -29.45 23.2 -26.85Q23.2 -23.7 21.85 -21.65Q20.5 -19.65 18.45 -18.7Q21.05 -17.65 22.75 -15.55Q24.45 -13.45 24.45 -9.75Q24.45 -7 23.55 -5.1Q22.65 -3.2 21 -2Q19.35 -0.8 17.05 -0.25Q14.8 0.25 12.05 0.25Q10.25 0.25 8.3 0.05Q6.4 -0.15 4.3 -0.55L4.3 -34.95" />
</g>
<g id="PathID_26" transform="matrix(0.9375, 0, 0, 0.9375, 426.25, 454.75)" opacity="1">
</g>
<g id="PathID_27" transform="matrix(0.9375, 0, 0, 0.9375, 451.25, 454.75)" opacity="1">
<path style="fill:#FFFFFF;fill-opacity:1" d="M10.95 0.5Q7.15 0.4 5.5 -1.35Q3.9 -3.1 3.9 -6.95L3.9 -38.95L8.3 -39.75L8.3 -6.85Q8.3 -5.05 9 -4.25Q9.7 -3.5 11.5 -3.2L10.95 0.5" />
</g>
<g id="PathID_28" transform="matrix(0.9375, 0, 0, 0.9375, 451.25, 454.75)" opacity="1">
</g>
<g id="PathID_29" transform="matrix(0.9375, 0, 0, 0.9375, 462.9, 454.75)" opacity="1">
<path style="fill:#FFFFFF;fill-opacity:1" d="M21.25 -13.4Q21.25 -10.25 20.65 -7.65Q20.1 -5.05 18.95 -3.2Q17.8 -1.35 16 -0.35Q14.25 0.65 11.85 0.65Q9.45 0.65 7.65 -0.35Q5.85 -1.35 4.7 -3.2Q3.55 -5.05 3 -7.65Q2.45 -10.25 2.45 -13.4Q2.45 -16.5 3 -19.1Q3.55 -21.75 4.7 -23.6Q5.85 -25.5 7.65 -26.5Q9.45 -27.55 11.85 -27.55Q14.25 -27.55 16 -26.5Q17.8 -25.5 18.95 -23.6Q20.1 -21.75 20.65 -19.1Q21.25 -16.5 21.25 -13.4M16.65 -13.4Q16.65 -15.65 16.35 -17.5Q16.1 -19.4 15.55 -20.75Q15 -22.1 14.05 -22.85Q13.15 -23.6 11.85 -23.6Q10.5 -23.6 9.6 -22.85Q8.7 -22.1 8.1 -20.75Q7.55 -19.4 7.3 -17.5Q7.05 -15.65 7.05 -13.4Q7.05 -11.15 7.3 -9.25Q7.55 -7.4 8.1 -6.05Q8.7 -4.75 9.6 -4Q10.5 -3.3 11.85 -3.3Q13.15 -3.3 14.05 -4Q15 -4.75 15.55 -6.05Q16.1 -7.4 16.35 -9.25Q16.65 -11.15 16.65 -13.4" />
</g>
<g id="PathID_30" transform="matrix(0.9375, 0, 0, 0.9375, 462.9, 454.75)" opacity="1">
</g>
<g id="PathID_31" transform="matrix(0.9375, 0, 0, 0.9375, 485.1, 454.75)" opacity="1">
<path style="fill:#FFFFFF;fill-opacity:1" d="M19.95 -0.75Q19.95 2.15 19.2 4.1Q18.45 6.1 17.15 7.3Q15.9 8.55 14.15 9.1Q12.45 9.65 10.5 9.65Q8.9 9.65 7.25 9.3Q5.6 8.95 4.25 8.25L5.15 4.55Q6.05 5.05 7.35 5.45Q8.7 5.85 10.15 5.85Q12.65 5.85 14.1 4.4Q15.55 3 15.55 -0.45L15.55 -1.75Q14.7 -1.4 13.75 -1.15Q12.85 -0.95 11.7 -0.95Q6.9 -0.95 4.65 -4.25Q2.45 -7.55 2.45 -13.6Q2.45 -16.8 3 -19.4Q3.6 -22 4.85 -23.8Q6.1 -25.65 8.1 -26.6Q10.1 -27.55 12.95 -27.55Q14.85 -27.55 16.65 -27.15Q18.5 -26.75 19.95 -26.15L19.95 -0.75M15.55 -23.25L14.15 -23.55L12.9 -23.65Q9.85 -23.65 8.45 -21.25Q7.05 -18.9 7.05 -13.6Q7.05 -8.75 8.4 -6.8Q9.8 -4.85 12.35 -4.85Q13.2 -4.85 14 -5.05Q14.8 -5.25 15.55 -5.6L15.55 -23.25" />
</g>
<g id="PathID_32" transform="matrix(0.9375, 0, 0, 0.9375, 485.1, 454.75)" opacity="1">
</g>
</svg>
