<?xml version="1.0" encoding="UTF-8" standalone="no"?>
<!-- Created with Inkscape (http://www.inkscape.org/) -->

<svg
   xmlns:dc="http://purl.org/dc/elements/1.1/"
   xmlns:cc="http://creativecommons.org/ns#"
   xmlns:rdf="http://www.w3.org/1999/02/22-rdf-syntax-ns#"
   xmlns:svg="http://www.w3.org/2000/svg"
   xmlns="http://www.w3.org/2000/svg"
   xmlns:sodipodi="http://sodipodi.sourceforge.net/DTD/sodipodi-0.dtd"
   xmlns:inkscape="http://www.inkscape.org/namespaces/inkscape"
   width="16"
   height="16"
   id="svg5033"
   version="1.1"
   inkscape:version="0.48.4 r9939"
   sodipodi:docname="os-favicon-1.svg">
  <defs
     id="defs5035" />
  <sodipodi:namedview
     id="base"
     pagecolor="#ffffff"
     bordercolor="#666666"
     borderopacity="1.0"
     inkscape:pageopacity="0.0"
     inkscape:pageshadow="2"
     inkscape:zoom="15.839192"
     inkscape:cx="11.538169"
     inkscape:cy="6.7984041"
     inkscape:document-units="px"
     inkscape:current-layer="g3023"
     showgrid="false"
     inkscape:window-width="1280"
     inkscape:window-height="1000"
     inkscape:window-x="0"
     inkscape:window-y="24"
     inkscape:window-maximized="1"
     fit-margin-top="0"
     fit-margin-left="0"
     fit-margin-right="0"
     fit-margin-bottom="0" />
  <metadata
     id="metadata5038">
    <rdf:RDF>
      <cc:Work
         rdf:about="">
        <dc:format>image/svg+xml</dc:format>
        <dc:type
           rdf:resource="http://purl.org/dc/dcmitype/StillImage" />
        <dc:title></dc:title>
      </cc:Work>
    </rdf:RDF>
  </metadata>
  <g
     inkscape:label="Layer 1"
     inkscape:groupmode="layer"
     id="layer1"
     transform="translate(-492.8822,-326.6015)">
    <g
       id="g5095">
      <g
         id="g3023">
        <rect
           y="326.6015"
           x="492.8822"
           height="16"
           width="16"
           id="rect8082"
           style="fill:#659593;fill-opacity:1;stroke:none" />
        <g
           id="g8086"
           transform="matrix(0.23401237,0,0,0.23401237,409.89393,226.95892)">
          <g
             id="g8088"
             transform="translate(-998.81912,382.93647)"
             style="fill:#ffffff"
             inkscape:export-filename="/home/ryan/Pictures/open sprites/os3.png"
             inkscape:export-xdpi="90"
             inkscape:export-ydpi="90">
            <g
               id="g8090"
               transform="matrix(2.7299333,0,0,2.7299333,-1820.3411,-7.0306086)"
               style="fill:#ffffff">
              <g
                 transform="matrix(0.62436546,0,0,0.62436546,438.48624,4.5611745)"
                 id="g8092"
                 style="fill:#ffffff">
                <path
                   inkscape:connector-curvature="0"
                   id="path8094"
                   d="m 1495.8929,-10.941391 c 0,10.30602838 -8.3547,18.6607151 -18.6607,18.6607151 -10.3061,0 -18.6607,-8.35468672 -18.6607,-18.6607151 0,-10.306028 8.3546,-18.660715 18.6607,-18.660715 10.306,0 18.6607,8.354687 18.6607,18.660715 z"
                   style="fill:#ffffff;fill-opacity:1;stroke:none"
                   transform="matrix(0.31100482,0,0,0.31100482,720.87177,37.79203)" />
                <path
                   inkscape:connector-curvature="0"
                   id="path8096"
                   d="m 1180.1783,28.585651 5.9978,0 0,11.581086 -5.9978,0 z"
                   style="fill:#ffffff;fill-opacity:1;stroke:none" />
              </g>
              <g
                 transform="matrix(-0.62436546,0,0,-0.62436546,1911.7385,57.037993)"
                 id="g8098"
                 style="fill:#ffffff">
                <path
                   inkscape:connector-curvature="0"
                   id="path8100"
                   d="m 1495.8929,-10.941391 c 0,10.30602838 -8.3547,18.6607151 -18.6607,18.6607151 -10.3061,0 -18.6607,-8.35468672 -18.6607,-18.6607151 0,-10.306028 8.3546,-18.660715 18.6607,-18.660715 10.306,0 18.6607,8.354687 18.6607,18.660715 z"
                   style="fill:#ffffff;fill-opacity:1;stroke:none"
                   transform="matrix(0.31100482,0,0,0.31100482,720.87177,37.79203)" />
                <path
                   inkscape:connector-curvature="0"
                   id="path8102"
                   d="m 1180.1783,28.585651 5.9978,0 0,11.581086 -5.9978,0 z"
                   style="fill:#ffffff;fill-opacity:1;stroke:none" />
              </g>
            </g>
          </g>
        </g>
      </g>
    </g>
  </g>
</svg>
